<?xml version="1.0" encoding="UTF-8" standalone="no"?>
<!DOCTYPE svg PUBLIC "-//W3C//DTD SVG 1.1//EN"
 "http://www.w3.org/Graphics/SVG/1.1/DTD/svg11.dtd">
<!-- Generated by graphviz version 2.42.4 (0)
 -->
<!-- Pages: 1 -->
<svg width="534pt" height="404pt"
 viewBox="0.00 0.00 534.23 404.00" xmlns="http://www.w3.org/2000/svg" xmlns:xlink="http://www.w3.org/1999/xlink">
<g id="graph0" class="graph" transform="scale(1 1) rotate(0) translate(4 400)">
<polygon fill="white" stroke="transparent" points="-4,4 -4,-400 530.23,-400 530.23,4 -4,4"/>
<!-- Appendix -->
<g id="node1" class="node">
<title>Appendix</title>
<g id="a_node1"><a xlink:href="Appendix.html" xlink:title="Appendix✓">
<ellipse fill="none" stroke="green" cx="86.44" cy="-306" rx="54.69" ry="18"/>
<text text-anchor="middle" x="86.44" y="-302.3" font-family="Times,serif" font-size="14.00">Appendix✓</text>
</a>
</g>
</g>
<!-- Rainbow_triangles -->
<g id="node6" class="node">
<title>Rainbow_triangles</title>
<g id="a_node6"><a xlink:href="Rainbow_triangles.html" xlink:title="Rainbow_triangles✓">
<ellipse fill="none" stroke="green" cx="86.44" cy="-234" rx="86.38" ry="18"/>
<text text-anchor="middle" x="86.44" y="-230.3" font-family="Times,serif" font-size="14.00">Rainbow_triangles✓</text>
</a>
</g>
</g>
<!-- Appendix&#45;&gt;Rainbow_triangles -->
<g id="edge1" class="edge">
<title>Appendix&#45;&gt;Rainbow_triangles</title>
<path fill="none" stroke="black" d="M86.44,-287.7C86.44,-279.98 86.44,-270.71 86.44,-262.11"/>
<polygon fill="black" stroke="black" points="89.94,-262.1 86.44,-252.1 82.94,-262.1 89.94,-262.1"/>
</g>
<!-- basic_definitions -->
<g id="node2" class="node">
<title>basic_definitions</title>
<g id="a_node2"><a xlink:href="basic_definitions.html" xlink:title="basic_definitions✓">
<ellipse fill="none" stroke="green" cx="270.44" cy="-234" rx="79.89" ry="18"/>
<text text-anchor="middle" x="270.44" y="-230.3" font-family="Times,serif" font-size="14.00">basic_definitions✓</text>
</a>
</g>
</g>
<!-- square -->
<g id="node10" class="node">
<title>square</title>
<g id="a_node10"><a xlink:href="square.html" xlink:title="square✓">
<ellipse fill="none" stroke="green" cx="268.44" cy="-162" rx="42.79" ry="18"/>
<text text-anchor="middle" x="268.44" y="-158.3" font-family="Times,serif" font-size="14.00">square✓</text>
</a>
</g>
</g>
<!-- basic_definitions&#45;&gt;square -->
<g id="edge13" class="edge">
<title>basic_definitions&#45;&gt;square</title>
<path fill="none" stroke="black" d="M269.95,-215.7C269.73,-207.98 269.46,-198.71 269.22,-190.11"/>
<polygon fill="black" stroke="black" points="272.72,-190 268.93,-180.1 265.72,-190.2 272.72,-190"/>
</g>
<!-- main_statement -->
<g id="node3" class="node">
<title>main_statement</title>
<g id="a_node3"><a xlink:href="main_statement.html" xlink:title="main_statement✓">
<ellipse fill="none" stroke="green" cx="267.44" cy="-18" rx="76.89" ry="18"/>
<text text-anchor="middle" x="267.44" y="-14.3" font-family="Times,serif" font-size="14.00">main_statement✓</text>
</a>
</g>
</g>
<!-- miscellaneous -->
<g id="node4" class="node">
<title>miscellaneous</title>
<g id="a_node4"><a xlink:href="miscellaneous.html" xlink:title="miscellaneous✓">
<ellipse fill="none" stroke="green" cx="175.44" cy="-378" rx="70.39" ry="18"/>
<text text-anchor="middle" x="175.44" y="-374.3" font-family="Times,serif" font-size="14.00">miscellaneous✓</text>
</a>
</g>
</g>
<!-- segment_triangle -->
<g id="node8" class="node">
<title>segment_triangle</title>
<g id="a_node8"><a xlink:href="segment_triangle.html" xlink:title="segment_triangle✓">
<ellipse fill="none" stroke="green" cx="255.44" cy="-306" rx="81.49" ry="18"/>
<text text-anchor="middle" x="255.44" y="-302.3" font-family="Times,serif" font-size="14.00">segment_triangle✓</text>
</a>
</g>
</g>
<!-- miscellaneous&#45;&gt;segment_triangle -->
<g id="edge11" class="edge">
<title>miscellaneous&#45;&gt;segment_triangle</title>
<path fill="none" stroke="black" d="M194.4,-360.41C204.59,-351.5 217.32,-340.36 228.52,-330.56"/>
<polygon fill="black" stroke="black" points="231.12,-332.93 236.34,-323.71 226.51,-327.66 231.12,-332.93"/>
</g>
<!-- monsky_even -->
<g id="node5" class="node">
<title>monsky_even</title>
<g id="a_node5"><a xlink:href="monsky_even.html" xlink:title="monsky_even✓">
<ellipse fill="none" stroke="green" cx="267.44" cy="-90" rx="69.59" ry="18"/>
<text text-anchor="middle" x="267.44" y="-86.3" font-family="Times,serif" font-size="14.00">monsky_even✓</text>
</a>
</g>
</g>
<!-- monsky_even&#45;&gt;main_statement -->
<g id="edge7" class="edge">
<title>monsky_even&#45;&gt;main_statement</title>
<path fill="none" stroke="black" d="M267.44,-71.7C267.44,-63.98 267.44,-54.71 267.44,-46.11"/>
<polygon fill="black" stroke="black" points="270.94,-46.1 267.44,-36.1 263.94,-46.1 270.94,-46.1"/>
</g>
<!-- segment_counting -->
<g id="node7" class="node">
<title>segment_counting</title>
<g id="a_node7"><a xlink:href="segment_counting.html" xlink:title="segment_counting✓">
<ellipse fill="none" stroke="green" cx="94.44" cy="-90" rx="85.29" ry="18"/>
<text text-anchor="middle" x="94.44" y="-86.3" font-family="Times,serif" font-size="14.00">segment_counting✓</text>
</a>
</g>
</g>
<!-- Rainbow_triangles&#45;&gt;segment_counting -->
<g id="edge9" class="edge">
<title>Rainbow_triangles&#45;&gt;segment_counting</title>
<path fill="none" stroke="black" d="M87.41,-215.87C88.77,-191.67 91.28,-147.21 92.9,-118.39"/>
<polygon fill="black" stroke="black" points="96.41,-118.37 93.47,-108.19 89.42,-117.98 96.41,-118.37"/>
</g>
<!-- segment_counting&#45;&gt;main_statement -->
<g id="edge5" class="edge">
<title>segment_counting&#45;&gt;main_statement</title>
<path fill="none" stroke="black" d="M131.98,-73.81C158.12,-63.24 193.14,-49.06 221.03,-37.78"/>
<polygon fill="black" stroke="black" points="222.61,-40.91 230.57,-33.92 219.99,-34.43 222.61,-40.91"/>
</g>
<!-- segment_triangle&#45;&gt;basic_definitions -->
<g id="edge4" class="edge">
<title>segment_triangle&#45;&gt;basic_definitions</title>
<path fill="none" stroke="black" d="M259.15,-287.7C260.8,-279.98 262.79,-270.71 264.63,-262.11"/>
<polygon fill="black" stroke="black" points="268.1,-262.62 266.78,-252.1 261.26,-261.15 268.1,-262.62"/>
</g>
<!-- segment_triangle&#45;&gt;Rainbow_triangles -->
<g id="edge2" class="edge">
<title>segment_triangle&#45;&gt;Rainbow_triangles</title>
<path fill="none" stroke="black" d="M218.77,-289.81C193.5,-279.34 159.72,-265.35 132.62,-254.13"/>
<polygon fill="black" stroke="black" points="133.91,-250.87 123.33,-250.28 131.23,-257.34 133.91,-250.87"/>
</g>
<!-- simplex_basic -->
<g id="node9" class="node">
<title>simplex_basic</title>
<g id="a_node9"><a xlink:href="simplex_basic.html" xlink:title="simplex_basic✓">
<ellipse fill="none" stroke="green" cx="334.44" cy="-378" rx="70.69" ry="18"/>
<text text-anchor="middle" x="334.44" y="-374.3" font-family="Times,serif" font-size="14.00">simplex_basic✓</text>
</a>
</g>
</g>
<!-- simplex_basic&#45;&gt;segment_triangle -->
<g id="edge12" class="edge">
<title>simplex_basic&#45;&gt;segment_triangle</title>
<path fill="none" stroke="black" d="M315.72,-360.41C305.66,-351.5 293.09,-340.36 282.03,-330.56"/>
<polygon fill="black" stroke="black" points="284.11,-327.72 274.3,-323.71 279.47,-332.96 284.11,-327.72"/>
</g>
<!-- square&#45;&gt;monsky_even -->
<g id="edge8" class="edge">
<title>square&#45;&gt;monsky_even</title>
<path fill="none" stroke="black" d="M268.2,-143.7C268.08,-135.98 267.95,-126.71 267.83,-118.11"/>
<polygon fill="black" stroke="black" points="271.33,-118.05 267.69,-108.1 264.33,-118.15 271.33,-118.05"/>
</g>
<!-- square&#45;&gt;segment_counting -->
<g id="edge10" class="edge">
<title>square&#45;&gt;segment_counting</title>
<path fill="none" stroke="black" d="M238.53,-148.97C211.85,-138.23 172.34,-122.34 141.44,-109.91"/>
<polygon fill="black" stroke="black" points="142.74,-106.66 132.15,-106.17 140.12,-113.15 142.74,-106.66"/>
</g>
<!-- Triangle_corollary -->
<g id="node11" class="node">
<title>Triangle_corollary</title>
<g id="a_node11"><a xlink:href="Triangle_corollary.html" xlink:title="Triangle_corollary✓">
<ellipse fill="none" stroke="green" cx="440.44" cy="-90" rx="85.59" ry="18"/>
<text text-anchor="middle" x="440.44" y="-86.3" font-family="Times,serif" font-size="14.00">Triangle_corollary✓</text>
</a>
</g>
</g>
<!-- square&#45;&gt;Triangle_corollary -->
<g id="edge3" class="edge">
<title>square&#45;&gt;Triangle_corollary</title>
<path fill="none" stroke="black" d="M298.4,-148.81C324.63,-138.13 363.18,-122.45 393.5,-110.11"/>
<polygon fill="black" stroke="black" points="395.09,-113.24 403.03,-106.23 392.45,-106.75 395.09,-113.24"/>
</g>
<!-- Triangle_corollary&#45;&gt;main_statement -->
<g id="edge6" class="edge">
<title>Triangle_corollary&#45;&gt;main_statement</title>
<path fill="none" stroke="black" d="M402.9,-73.81C376.77,-63.24 341.74,-49.06 313.85,-37.78"/>
<polygon fill="black" stroke="black" points="314.9,-34.43 304.31,-33.92 312.27,-40.91 314.9,-34.43"/>
</g>
</g>
</svg>
